<mxfile host="app.diagrams.net" agent="Mozilla/5.0 (Windows NT 10.0; Win64; x64) AppleWebKit/537.36 (KHTML, like Gecko) Chrome/137.0.0.0 Safari/537.36 Edg/137.0.0.0" version="27.1.4">
  <diagram name="Page-1" id="h8ND2YCXx_q_11anvdJg">
    <mxGraphModel dx="950" dy="542" grid="1" gridSize="10" guides="1" tooltips="1" connect="1" arrows="1" fold="1" page="1" pageScale="1" pageWidth="1169" pageHeight="1654" math="0" shadow="0">
      <root>
        <mxCell id="0" />
        <mxCell id="1" parent="0" />
        <mxCell id="WLgMe-NwN1YFpacDp3Dy-98" value="" style="rounded=1;whiteSpace=wrap;html=1;" vertex="1" parent="1">
          <mxGeometry x="720" y="240" width="540" height="290" as="geometry" />
        </mxCell>
        <mxCell id="kuSbzI_8MilSJQJW6Pbf-1" value="1. GitHub kiểm tra lịch (mỗi giờ)&#xa;     ↓&#xa;2. Tạo máy ảo Ubuntu mới&#xa;     ↓  &#xa;3. Tải code bot từ repo&#xa;     ↓&#xa;4. Cài Python + dependencies&#xa;     ↓&#xa;5. Chạy bot → gửi Telegram&#xa;     ↓&#xa;6. Xóa máy ảo (tiết kiệm tài nguyên)" style="text;whiteSpace=wrap;" parent="1" vertex="1">
          <mxGeometry x="30" y="40" width="230" height="180" as="geometry" />
        </mxCell>
        <mxCell id="kuSbzI_8MilSJQJW6Pbf-12" value="" style="edgeStyle=orthogonalEdgeStyle;rounded=0;orthogonalLoop=1;jettySize=auto;html=1;" parent="1" source="kuSbzI_8MilSJQJW6Pbf-2" target="kuSbzI_8MilSJQJW6Pbf-5" edge="1">
          <mxGeometry relative="1" as="geometry" />
        </mxCell>
        <mxCell id="kuSbzI_8MilSJQJW6Pbf-2" value="" style="shape=image;verticalLabelPosition=bottom;labelBackgroundColor=default;verticalAlign=top;aspect=fixed;imageAspect=0;image=https://cdn-icons-png.flaticon.com/512/25/25231.png;" parent="1" vertex="1">
          <mxGeometry x="30" y="485" width="70" height="70" as="geometry" />
        </mxCell>
        <mxCell id="kuSbzI_8MilSJQJW6Pbf-3" value="Github Actions" style="text;html=1;align=center;verticalAlign=middle;whiteSpace=wrap;rounded=0;" parent="1" vertex="1">
          <mxGeometry x="30" y="450" width="60" height="30" as="geometry" />
        </mxCell>
        <mxCell id="kuSbzI_8MilSJQJW6Pbf-13" value="" style="edgeStyle=orthogonalEdgeStyle;rounded=0;orthogonalLoop=1;jettySize=auto;html=1;" parent="1" source="kuSbzI_8MilSJQJW6Pbf-5" target="kuSbzI_8MilSJQJW6Pbf-10" edge="1">
          <mxGeometry relative="1" as="geometry" />
        </mxCell>
        <mxCell id="kuSbzI_8MilSJQJW6Pbf-22" value="" style="edgeStyle=orthogonalEdgeStyle;rounded=0;orthogonalLoop=1;jettySize=auto;html=1;" parent="1" source="kuSbzI_8MilSJQJW6Pbf-5" target="kuSbzI_8MilSJQJW6Pbf-21" edge="1">
          <mxGeometry relative="1" as="geometry" />
        </mxCell>
        <mxCell id="kuSbzI_8MilSJQJW6Pbf-5" value="VM Ubuntu&lt;br&gt;Recive Request&lt;br&gt;Do actions&lt;br&gt;Return output" style="rounded=0;whiteSpace=wrap;html=1;" parent="1" vertex="1">
          <mxGeometry x="140" y="490" width="120" height="60" as="geometry" />
        </mxCell>
        <mxCell id="kuSbzI_8MilSJQJW6Pbf-25" style="edgeStyle=orthogonalEdgeStyle;rounded=0;orthogonalLoop=1;jettySize=auto;html=1;entryX=0.5;entryY=1;entryDx=0;entryDy=0;exitX=0.558;exitY=-0.042;exitDx=0;exitDy=0;exitPerimeter=0;" parent="1" source="kuSbzI_8MilSJQJW6Pbf-6" target="kuSbzI_8MilSJQJW6Pbf-24" edge="1">
          <mxGeometry relative="1" as="geometry">
            <mxPoint x="210" y="630" as="sourcePoint" />
            <Array as="points">
              <mxPoint x="210" y="688" />
              <mxPoint x="210" y="660" />
              <mxPoint x="240" y="660" />
            </Array>
          </mxGeometry>
        </mxCell>
        <mxCell id="kuSbzI_8MilSJQJW6Pbf-6" value="Web URLs&amp;nbsp;" style="rounded=0;whiteSpace=wrap;html=1;" parent="1" vertex="1">
          <mxGeometry x="140" y="690" width="120" height="60" as="geometry" />
        </mxCell>
        <mxCell id="kuSbzI_8MilSJQJW6Pbf-10" value="" style="shape=image;verticalLabelPosition=bottom;labelBackgroundColor=default;verticalAlign=top;aspect=fixed;imageAspect=0;image=https://upload.wikimedia.org/wikipedia/commons/thumb/8/83/Telegram_2019_Logo.svg/2048px-Telegram_2019_Logo.svg.png;" parent="1" vertex="1">
          <mxGeometry x="310" y="490" width="60" height="60" as="geometry" />
        </mxCell>
        <mxCell id="kuSbzI_8MilSJQJW6Pbf-27" style="edgeStyle=orthogonalEdgeStyle;rounded=0;orthogonalLoop=1;jettySize=auto;html=1;exitX=0.5;exitY=0;exitDx=0;exitDy=0;entryX=1;entryY=0.5;entryDx=0;entryDy=0;" parent="1" source="kuSbzI_8MilSJQJW6Pbf-11" target="kuSbzI_8MilSJQJW6Pbf-15" edge="1">
          <mxGeometry relative="1" as="geometry" />
        </mxCell>
        <mxCell id="kuSbzI_8MilSJQJW6Pbf-11" value="Telegram bot" style="text;html=1;align=center;verticalAlign=middle;whiteSpace=wrap;rounded=0;" parent="1" vertex="1">
          <mxGeometry x="310" y="450" width="60" height="30" as="geometry" />
        </mxCell>
        <mxCell id="kuSbzI_8MilSJQJW6Pbf-20" style="edgeStyle=orthogonalEdgeStyle;rounded=0;orthogonalLoop=1;jettySize=auto;html=1;exitX=0.5;exitY=1;exitDx=0;exitDy=0;entryX=0.5;entryY=0;entryDx=0;entryDy=0;" parent="1" source="kuSbzI_8MilSJQJW6Pbf-14" target="kuSbzI_8MilSJQJW6Pbf-5" edge="1">
          <mxGeometry relative="1" as="geometry" />
        </mxCell>
        <mxCell id="kuSbzI_8MilSJQJW6Pbf-14" value="" style="shape=image;verticalLabelPosition=bottom;labelBackgroundColor=default;verticalAlign=top;aspect=fixed;imageAspect=0;image=https://cdn-icons-png.flaticon.com/512/25/25231.png;" parent="1" vertex="1">
          <mxGeometry x="165" y="390" width="70" height="70" as="geometry" />
        </mxCell>
        <mxCell id="kuSbzI_8MilSJQJW6Pbf-17" value="" style="edgeStyle=orthogonalEdgeStyle;rounded=0;orthogonalLoop=1;jettySize=auto;html=1;" parent="1" source="kuSbzI_8MilSJQJW6Pbf-15" target="kuSbzI_8MilSJQJW6Pbf-3" edge="1">
          <mxGeometry relative="1" as="geometry" />
        </mxCell>
        <mxCell id="kuSbzI_8MilSJQJW6Pbf-15" value="" style="shape=image;verticalLabelPosition=bottom;labelBackgroundColor=default;verticalAlign=top;aspect=fixed;imageAspect=0;image=https://upload.wikimedia.org/wikipedia/commons/thumb/8/83/Telegram_2019_Logo.svg/2048px-Telegram_2019_Logo.svg.png;" parent="1" vertex="1">
          <mxGeometry x="30" y="280" width="60" height="60" as="geometry" />
        </mxCell>
        <mxCell id="kuSbzI_8MilSJQJW6Pbf-16" value="Chat User interaction" style="text;html=1;align=center;verticalAlign=middle;whiteSpace=wrap;rounded=0;" parent="1" vertex="1">
          <mxGeometry x="30" y="240" width="60" height="30" as="geometry" />
        </mxCell>
        <mxCell id="kuSbzI_8MilSJQJW6Pbf-18" value="Github Repo" style="text;html=1;align=center;verticalAlign=middle;whiteSpace=wrap;rounded=0;" parent="1" vertex="1">
          <mxGeometry x="165" y="360" width="60" height="30" as="geometry" />
        </mxCell>
        <mxCell id="kuSbzI_8MilSJQJW6Pbf-23" style="edgeStyle=orthogonalEdgeStyle;rounded=0;orthogonalLoop=1;jettySize=auto;html=1;exitX=0.5;exitY=1;exitDx=0;exitDy=0;entryX=0.5;entryY=0;entryDx=0;entryDy=0;" parent="1" source="kuSbzI_8MilSJQJW6Pbf-21" target="kuSbzI_8MilSJQJW6Pbf-6" edge="1">
          <mxGeometry relative="1" as="geometry" />
        </mxCell>
        <mxCell id="kuSbzI_8MilSJQJW6Pbf-21" value="Fetch" style="text;html=1;align=center;verticalAlign=middle;whiteSpace=wrap;rounded=0;" parent="1" vertex="1">
          <mxGeometry x="140" y="600" width="60" height="30" as="geometry" />
        </mxCell>
        <mxCell id="kuSbzI_8MilSJQJW6Pbf-24" value="Parse" style="text;html=1;align=center;verticalAlign=middle;whiteSpace=wrap;rounded=0;" parent="1" vertex="1">
          <mxGeometry x="210" y="600" width="60" height="30" as="geometry" />
        </mxCell>
        <mxCell id="kuSbzI_8MilSJQJW6Pbf-26" style="edgeStyle=orthogonalEdgeStyle;rounded=0;orthogonalLoop=1;jettySize=auto;html=1;exitX=0.5;exitY=0;exitDx=0;exitDy=0;entryX=0.593;entryY=1.042;entryDx=0;entryDy=0;entryPerimeter=0;" parent="1" source="kuSbzI_8MilSJQJW6Pbf-24" target="kuSbzI_8MilSJQJW6Pbf-5" edge="1">
          <mxGeometry relative="1" as="geometry" />
        </mxCell>
        <mxCell id="kuSbzI_8MilSJQJW6Pbf-28" value="Message" style="text;html=1;align=center;verticalAlign=middle;whiteSpace=wrap;rounded=0;" parent="1" vertex="1">
          <mxGeometry x="280" y="280" width="60" height="30" as="geometry" />
        </mxCell>
        <mxCell id="kuSbzI_8MilSJQJW6Pbf-29" value="Request" style="text;html=1;align=center;verticalAlign=middle;whiteSpace=wrap;rounded=0;" parent="1" vertex="1">
          <mxGeometry x="60" y="350" width="60" height="30" as="geometry" />
        </mxCell>
        <mxCell id="WLgMe-NwN1YFpacDp3Dy-1" value="Github Action" style="text;html=1;align=center;verticalAlign=middle;whiteSpace=wrap;rounded=0;fontStyle=1" vertex="1" parent="1">
          <mxGeometry y="10" width="100" height="30" as="geometry" />
        </mxCell>
        <mxCell id="WLgMe-NwN1YFpacDp3Dy-32" value="" style="shape=image;verticalLabelPosition=bottom;labelBackgroundColor=default;verticalAlign=top;aspect=fixed;imageAspect=0;image=https://upload.wikimedia.org/wikipedia/commons/thumb/8/83/Telegram_2019_Logo.svg/2048px-Telegram_2019_Logo.svg.png;" vertex="1" parent="1">
          <mxGeometry x="590" y="290" width="60" height="60" as="geometry" />
        </mxCell>
        <mxCell id="WLgMe-NwN1YFpacDp3Dy-34" value="Telegram bot" style="text;html=1;align=center;verticalAlign=middle;whiteSpace=wrap;rounded=0;" vertex="1" parent="1">
          <mxGeometry x="590" y="250" width="60" height="30" as="geometry" />
        </mxCell>
        <mxCell id="WLgMe-NwN1YFpacDp3Dy-45" value="KMS" style="text;html=1;align=center;verticalAlign=middle;whiteSpace=wrap;rounded=0;" vertex="1" parent="1">
          <mxGeometry x="810" y="422" width="60" height="30" as="geometry" />
        </mxCell>
        <mxCell id="WLgMe-NwN1YFpacDp3Dy-74" value="" style="edgeStyle=orthogonalEdgeStyle;rounded=0;orthogonalLoop=1;jettySize=auto;html=1;entryX=0;entryY=0.25;entryDx=0;entryDy=0;" edge="1" parent="1" source="WLgMe-NwN1YFpacDp3Dy-47" target="WLgMe-NwN1YFpacDp3Dy-62">
          <mxGeometry relative="1" as="geometry" />
        </mxCell>
        <mxCell id="WLgMe-NwN1YFpacDp3Dy-47" value="" style="shape=image;verticalLabelPosition=bottom;labelBackgroundColor=default;verticalAlign=top;aspect=fixed;imageAspect=0;image=https://upload.wikimedia.org/wikipedia/commons/4/45/Notion_app_logo.png;" vertex="1" parent="1">
          <mxGeometry x="830" y="446" width="62" height="62" as="geometry" />
        </mxCell>
        <mxCell id="WLgMe-NwN1YFpacDp3Dy-53" value="" style="edgeStyle=orthogonalEdgeStyle;rounded=0;orthogonalLoop=1;jettySize=auto;html=1;" edge="1" parent="1" source="WLgMe-NwN1YFpacDp3Dy-50" target="WLgMe-NwN1YFpacDp3Dy-32">
          <mxGeometry relative="1" as="geometry" />
        </mxCell>
        <mxCell id="WLgMe-NwN1YFpacDp3Dy-60" value="" style="group" vertex="1" connectable="0" parent="1">
          <mxGeometry x="850" y="262.5" width="65" height="125" as="geometry" />
        </mxCell>
        <mxCell id="WLgMe-NwN1YFpacDp3Dy-56" value="" style="shape=image;verticalLabelPosition=bottom;labelBackgroundColor=default;verticalAlign=top;aspect=fixed;imageAspect=0;image=https://static.vecteezy.com/system/resources/previews/021/711/277/non_2x/retrieval-icon-vector.jpg;" vertex="1" parent="WLgMe-NwN1YFpacDp3Dy-60">
          <mxGeometry y="30" width="65" height="65" as="geometry" />
        </mxCell>
        <mxCell id="WLgMe-NwN1YFpacDp3Dy-58" value="&lt;b&gt;R&lt;/b&gt;AG Retriver" style="text;html=1;align=center;verticalAlign=middle;whiteSpace=wrap;rounded=0;" vertex="1" parent="WLgMe-NwN1YFpacDp3Dy-60">
          <mxGeometry x="5" width="60" height="30" as="geometry" />
        </mxCell>
        <mxCell id="WLgMe-NwN1YFpacDp3Dy-78" value="send vector DB" style="text;html=1;align=center;verticalAlign=middle;whiteSpace=wrap;rounded=0;" vertex="1" parent="WLgMe-NwN1YFpacDp3Dy-60">
          <mxGeometry x="-30" y="95" width="60" height="30" as="geometry" />
        </mxCell>
        <mxCell id="WLgMe-NwN1YFpacDp3Dy-65" value="" style="group;fillColor=#f5f5f5;fontColor=#333333;strokeColor=#666666;" vertex="1" connectable="0" parent="1">
          <mxGeometry x="1025" y="430" width="66" height="96" as="geometry" />
        </mxCell>
        <mxCell id="WLgMe-NwN1YFpacDp3Dy-62" value="" style="shape=image;verticalLabelPosition=bottom;labelBackgroundColor=default;verticalAlign=top;aspect=fixed;imageAspect=0;image=https://cdn.iconscout.com/icon/premium/png-256-thumb/human-review-11275233-9339107.png;" vertex="1" parent="WLgMe-NwN1YFpacDp3Dy-65">
          <mxGeometry y="30" width="66" height="66" as="geometry" />
        </mxCell>
        <mxCell id="WLgMe-NwN1YFpacDp3Dy-64" value="&lt;b&gt;R&lt;/b&gt;AG Augumentic" style="text;html=1;align=center;verticalAlign=middle;whiteSpace=wrap;rounded=0;" vertex="1" parent="WLgMe-NwN1YFpacDp3Dy-65">
          <mxGeometry x="3" width="60" height="30" as="geometry" />
        </mxCell>
        <mxCell id="WLgMe-NwN1YFpacDp3Dy-70" value="chunked prompt" style="text;html=1;align=center;verticalAlign=middle;whiteSpace=wrap;rounded=0;" vertex="1" parent="1">
          <mxGeometry x="940" y="330" width="60" height="30" as="geometry" />
        </mxCell>
        <mxCell id="WLgMe-NwN1YFpacDp3Dy-72" value="" style="group" vertex="1" connectable="0" parent="1">
          <mxGeometry x="450" y="250" width="60" height="100" as="geometry" />
        </mxCell>
        <mxCell id="WLgMe-NwN1YFpacDp3Dy-50" value="" style="shape=image;verticalLabelPosition=bottom;labelBackgroundColor=default;verticalAlign=top;aspect=fixed;imageAspect=0;image=https://upload.wikimedia.org/wikipedia/commons/thumb/8/83/Telegram_2019_Logo.svg/2048px-Telegram_2019_Logo.svg.png;" vertex="1" parent="WLgMe-NwN1YFpacDp3Dy-72">
          <mxGeometry y="40" width="60" height="60" as="geometry" />
        </mxCell>
        <mxCell id="WLgMe-NwN1YFpacDp3Dy-51" value="Chat User interaction" style="text;html=1;align=center;verticalAlign=middle;whiteSpace=wrap;rounded=0;" vertex="1" parent="WLgMe-NwN1YFpacDp3Dy-72">
          <mxGeometry width="60" height="30" as="geometry" />
        </mxCell>
        <mxCell id="WLgMe-NwN1YFpacDp3Dy-77" style="edgeStyle=orthogonalEdgeStyle;rounded=0;orthogonalLoop=1;jettySize=auto;html=1;exitX=0.5;exitY=0;exitDx=0;exitDy=0;" edge="1" parent="1" source="WLgMe-NwN1YFpacDp3Dy-48" target="WLgMe-NwN1YFpacDp3Dy-50">
          <mxGeometry relative="1" as="geometry">
            <Array as="points">
              <mxPoint x="1160" y="200" />
              <mxPoint x="480" y="200" />
            </Array>
          </mxGeometry>
        </mxCell>
        <mxCell id="WLgMe-NwN1YFpacDp3Dy-48" value="RA&lt;b&gt;G&lt;/b&gt;&lt;br&gt;LLM &lt;b&gt;G&lt;/b&gt;enAI" style="text;html=1;align=center;verticalAlign=middle;whiteSpace=wrap;rounded=0;" vertex="1" parent="1">
          <mxGeometry x="1115" y="250" width="90" height="30" as="geometry" />
        </mxCell>
        <mxCell id="WLgMe-NwN1YFpacDp3Dy-52" value="" style="shape=image;verticalLabelPosition=bottom;labelBackgroundColor=default;verticalAlign=top;aspect=fixed;imageAspect=0;image=https://t4.ftcdn.net/jpg/07/56/11/69/360_F_756116963_MKdL7O7BKH1ZHicpGXHd9ys9xDMhkGr2.jpg;" vertex="1" parent="1">
          <mxGeometry x="1130" y="280" width="60" height="60" as="geometry" />
        </mxCell>
        <mxCell id="WLgMe-NwN1YFpacDp3Dy-73" value="" style="edgeStyle=orthogonalEdgeStyle;rounded=0;orthogonalLoop=1;jettySize=auto;html=1;" edge="1" parent="1" source="WLgMe-NwN1YFpacDp3Dy-56" target="WLgMe-NwN1YFpacDp3Dy-47">
          <mxGeometry relative="1" as="geometry" />
        </mxCell>
        <mxCell id="WLgMe-NwN1YFpacDp3Dy-75" style="edgeStyle=orthogonalEdgeStyle;rounded=0;orthogonalLoop=1;jettySize=auto;html=1;exitX=1;exitY=0.5;exitDx=0;exitDy=0;entryX=0.5;entryY=0;entryDx=0;entryDy=0;" edge="1" parent="1" source="WLgMe-NwN1YFpacDp3Dy-99" target="WLgMe-NwN1YFpacDp3Dy-64">
          <mxGeometry relative="1" as="geometry">
            <mxPoint x="990" y="324.9999999999999" as="sourcePoint" />
          </mxGeometry>
        </mxCell>
        <mxCell id="WLgMe-NwN1YFpacDp3Dy-76" style="edgeStyle=orthogonalEdgeStyle;rounded=0;orthogonalLoop=1;jettySize=auto;html=1;exitX=1;exitY=0.25;exitDx=0;exitDy=0;" edge="1" parent="1" source="WLgMe-NwN1YFpacDp3Dy-62" target="WLgMe-NwN1YFpacDp3Dy-52">
          <mxGeometry relative="1" as="geometry" />
        </mxCell>
        <mxCell id="WLgMe-NwN1YFpacDp3Dy-84" value="relevant data" style="text;html=1;align=center;verticalAlign=middle;whiteSpace=wrap;rounded=0;" vertex="1" parent="1">
          <mxGeometry x="930" y="446" width="60" height="30" as="geometry" />
        </mxCell>
        <mxCell id="WLgMe-NwN1YFpacDp3Dy-85" value="augumented prompt" style="text;html=1;align=center;verticalAlign=middle;whiteSpace=wrap;rounded=0;" vertex="1" parent="1">
          <mxGeometry x="1169" y="380" width="60" height="30" as="geometry" />
        </mxCell>
        <mxCell id="WLgMe-NwN1YFpacDp3Dy-86" value="respond" style="text;html=1;align=center;verticalAlign=middle;whiteSpace=wrap;rounded=0;" vertex="1" parent="1">
          <mxGeometry x="790" y="170" width="60" height="30" as="geometry" />
        </mxCell>
        <mxCell id="WLgMe-NwN1YFpacDp3Dy-87" value="query" style="text;html=1;align=center;verticalAlign=middle;whiteSpace=wrap;rounded=0;" vertex="1" parent="1">
          <mxGeometry x="520" y="290" width="60" height="30" as="geometry" />
        </mxCell>
        <mxCell id="WLgMe-NwN1YFpacDp3Dy-88" value="query" style="text;html=1;align=center;verticalAlign=middle;whiteSpace=wrap;rounded=0;" vertex="1" parent="1">
          <mxGeometry x="660" y="290" width="60" height="30" as="geometry" />
        </mxCell>
        <mxCell id="WLgMe-NwN1YFpacDp3Dy-94" value="" style="group;fillColor=#f5f5f5;fontColor=#333333;strokeColor=#666666;" vertex="1" connectable="0" parent="1">
          <mxGeometry x="670" y="460" width="130" height="90" as="geometry" />
        </mxCell>
        <mxCell id="WLgMe-NwN1YFpacDp3Dy-91" value="Sever" style="text;html=1;align=center;verticalAlign=middle;whiteSpace=wrap;rounded=0;" vertex="1" parent="WLgMe-NwN1YFpacDp3Dy-94">
          <mxGeometry x="35.13513513513514" width="70.27027027027027" height="25" as="geometry" />
        </mxCell>
        <mxCell id="WLgMe-NwN1YFpacDp3Dy-89" value="" style="shape=image;verticalLabelPosition=bottom;labelBackgroundColor=default;verticalAlign=top;aspect=fixed;imageAspect=0;image=https://www.iconpacks.net/icons/2/free-database-server-icon-2375-thumb.png;" vertex="1" parent="WLgMe-NwN1YFpacDp3Dy-94">
          <mxGeometry x="23.423423423423422" y="14.166666666666668" width="75.83333333333334" height="75.83333333333334" as="geometry" />
        </mxCell>
        <mxCell id="WLgMe-NwN1YFpacDp3Dy-90" value="" style="shape=image;verticalLabelPosition=bottom;labelBackgroundColor=default;verticalAlign=top;aspect=fixed;imageAspect=0;image=https://cdn-icons-png.flaticon.com/512/25/25231.png;" vertex="1" parent="WLgMe-NwN1YFpacDp3Dy-94">
          <mxGeometry y="25" width="41.66666666666667" height="41.66666666666667" as="geometry" />
        </mxCell>
        <mxCell id="WLgMe-NwN1YFpacDp3Dy-97" style="edgeStyle=orthogonalEdgeStyle;rounded=0;orthogonalLoop=1;jettySize=auto;html=1;exitX=1;exitY=0.5;exitDx=0;exitDy=0;entryX=0.032;entryY=0.414;entryDx=0;entryDy=0;entryPerimeter=0;" edge="1" parent="1" source="WLgMe-NwN1YFpacDp3Dy-32" target="WLgMe-NwN1YFpacDp3Dy-56">
          <mxGeometry relative="1" as="geometry" />
        </mxCell>
        <mxCell id="WLgMe-NwN1YFpacDp3Dy-100" value="" style="edgeStyle=orthogonalEdgeStyle;rounded=0;orthogonalLoop=1;jettySize=auto;html=1;exitX=1;exitY=0.5;exitDx=0;exitDy=0;entryX=0.5;entryY=0;entryDx=0;entryDy=0;" edge="1" parent="1" source="WLgMe-NwN1YFpacDp3Dy-56" target="WLgMe-NwN1YFpacDp3Dy-99">
          <mxGeometry relative="1" as="geometry">
            <mxPoint x="915" y="325" as="sourcePoint" />
            <mxPoint x="1058" y="430" as="targetPoint" />
          </mxGeometry>
        </mxCell>
        <mxCell id="WLgMe-NwN1YFpacDp3Dy-99" value="" style="shape=image;verticalLabelPosition=bottom;labelBackgroundColor=default;verticalAlign=top;aspect=fixed;imageAspect=0;image=https://t4.ftcdn.net/jpg/07/56/11/69/360_F_756116963_MKdL7O7BKH1ZHicpGXHd9ys9xDMhkGr2.jpg;fillColor=default;" vertex="1" parent="1">
          <mxGeometry x="1036.75" y="310" width="42.5" height="42.5" as="geometry" />
        </mxCell>
        <mxCell id="WLgMe-NwN1YFpacDp3Dy-101" value="mini LLM prompt refiner" style="text;html=1;align=center;verticalAlign=middle;whiteSpace=wrap;rounded=0;fillColor=default;" vertex="1" parent="1">
          <mxGeometry x="1013" y="280" width="90" height="30" as="geometry" />
        </mxCell>
        <mxCell id="WLgMe-NwN1YFpacDp3Dy-102" value="refined prompt" style="text;html=1;align=center;verticalAlign=middle;whiteSpace=wrap;rounded=0;" vertex="1" parent="1">
          <mxGeometry x="1000" y="380" width="60" height="30" as="geometry" />
        </mxCell>
      </root>
    </mxGraphModel>
  </diagram>
</mxfile>
